<svg xmlns="http://www.w3.org/2000/svg" xmlns:xlink="http://www.w3.org/1999/xlink" width="500" zoomAndPan="magnify" viewBox="0 0 375 374.999991" height="500" preserveAspectRatio="xMidYMid meet" version="1.0"><defs><filter x="0%" y="0%" width="100%" height="100%" id="d2fd9a7678"><feColorMatrix values="0 0 0 0 1 0 0 0 0 1 0 0 0 0 1 0 0 0 1 0" color-interpolation-filters="sRGB"/></filter><clipPath id="e1bbbf208f"><path d="M 75 37.5 L 130 37.5 L 130 95 L 75 95 Z M 75 37.5 " clip-rule="nonzero"/></clipPath><clipPath id="6f93869d96"><path d="M 56 37.5 L 147 37.5 L 147 93 L 56 93 Z M 56 37.5 " clip-rule="nonzero"/></clipPath><clipPath id="c724acf401"><path d="M 56 37.5 L 147 37.5 L 147 91 L 56 91 Z M 56 37.5 " clip-rule="nonzero"/></clipPath><clipPath id="25566e628a"><path d="M 18 305 L 81 305 L 81 338.929688 L 18 338.929688 Z M 18 305 " clip-rule="nonzero"/></clipPath><clipPath id="148ab936ae"><path d="M 0.046875 138 L 92 138 L 92 323 L 0.046875 323 Z M 0.046875 138 " clip-rule="nonzero"/></clipPath><clipPath id="57375c1a43"><path d="M 110 288 L 166 288 L 166 338.929688 L 110 338.929688 Z M 110 288 " clip-rule="nonzero"/></clipPath><clipPath id="76fad8e18a"><path d="M 120 289 L 147 289 L 147 338.929688 L 120 338.929688 Z M 120 289 " clip-rule="nonzero"/></clipPath><clipPath id="96f23e010f"><path d="M 35 272 L 167 272 L 167 338.929688 L 35 338.929688 Z M 35 272 " clip-rule="nonzero"/></clipPath><clipPath id="8f30ca003a"><path d="M 59 198 L 367 198 L 367 332 L 59 332 Z M 59 198 " clip-rule="nonzero"/></clipPath><clipPath id="c3b2426c8c"><path d="M 300.066406 198.3125 L 140.328125 198.3125 L 59.492188 331.230469 L 366.113281 331.230469 Z M 300.066406 198.3125 " clip-rule="nonzero"/></clipPath><linearGradient x1="2550.33847" gradientTransform="matrix(0.0936314, 0, 0, 0.0935464, 0.00170785, 37.499999)" y1="1623.895152" x2="2435.436535" gradientUnits="userSpaceOnUse" y2="3265.902257" id="a5c48e63a2"><stop stop-opacity="1" stop-color="rgb(85.401917%, 90.440369%, 100%)" offset="0"/><stop stop-opacity="1" stop-color="rgb(85.289001%, 90.367126%, 100%)" offset="0.015625"/><stop stop-opacity="1" stop-color="rgb(85.066223%, 90.222168%, 100%)" offset="0.03125"/><stop stop-opacity="1" stop-color="rgb(84.841919%, 90.075684%, 100%)" offset="0.046875"/><stop stop-opacity="1" stop-color="rgb(84.619141%, 89.929199%, 100%)" offset="0.0625"/><stop stop-opacity="1" stop-color="rgb(84.394836%, 89.782715%, 100%)" offset="0.078125"/><stop stop-opacity="1" stop-color="rgb(84.172058%, 89.63623%, 100%)" offset="0.09375"/><stop stop-opacity="1" stop-color="rgb(83.947754%, 89.489746%, 100%)" offset="0.109375"/><stop stop-opacity="1" stop-color="rgb(83.724976%, 89.343262%, 100%)" offset="0.125"/><stop stop-opacity="1" stop-color="rgb(83.500671%, 89.196777%, 100%)" offset="0.138879"/><stop stop-opacity="1" stop-color="rgb(83.389282%, 89.123535%, 100%)" offset="0.140625"/><stop stop-opacity="1" stop-color="rgb(83.277893%, 89.050293%, 100%)" offset="0.15625"/><stop stop-opacity="1" stop-color="rgb(83.055115%, 88.903809%, 100%)" offset="0.171875"/><stop stop-opacity="1" stop-color="rgb(82.830811%, 88.75885%, 100%)" offset="0.1875"/><stop stop-opacity="1" stop-color="rgb(82.608032%, 88.612366%, 100%)" offset="0.203125"/><stop stop-opacity="1" stop-color="rgb(82.383728%, 88.465881%, 100%)" offset="0.21875"/><stop stop-opacity="1" stop-color="rgb(82.16095%, 88.319397%, 100%)" offset="0.234375"/><stop stop-opacity="1" stop-color="rgb(81.936646%, 88.172913%, 100%)" offset="0.25"/><stop stop-opacity="1" stop-color="rgb(81.713867%, 88.026428%, 100%)" offset="0.265625"/><stop stop-opacity="1" stop-color="rgb(81.489563%, 87.879944%, 100%)" offset="0.28125"/><stop stop-opacity="1" stop-color="rgb(81.266785%, 87.733459%, 100%)" offset="0.296875"/><stop stop-opacity="1" stop-color="rgb(81.04248%, 87.586975%, 100%)" offset="0.3125"/><stop stop-opacity="1" stop-color="rgb(80.819702%, 87.442017%, 100%)" offset="0.328125"/><stop stop-opacity="1" stop-color="rgb(80.596924%, 87.295532%, 100%)" offset="0.34375"/><stop stop-opacity="1" stop-color="rgb(80.37262%, 87.149048%, 100%)" offset="0.359375"/><stop stop-opacity="1" stop-color="rgb(80.149841%, 87.002563%, 100%)" offset="0.375"/><stop stop-opacity="1" stop-color="rgb(79.925537%, 86.856079%, 100%)" offset="0.390625"/><stop stop-opacity="1" stop-color="rgb(79.702759%, 86.709595%, 100%)" offset="0.40625"/><stop stop-opacity="1" stop-color="rgb(79.478455%, 86.56311%, 100%)" offset="0.421875"/><stop stop-opacity="1" stop-color="rgb(79.255676%, 86.416626%, 100%)" offset="0.4375"/><stop stop-opacity="1" stop-color="rgb(79.031372%, 86.270142%, 100%)" offset="0.453125"/><stop stop-opacity="1" stop-color="rgb(78.808594%, 86.125183%, 100%)" offset="0.46875"/><stop stop-opacity="1" stop-color="rgb(78.585815%, 85.978699%, 100%)" offset="0.484375"/><stop stop-opacity="1" stop-color="rgb(78.361511%, 85.832214%, 100%)" offset="0.5"/><stop stop-opacity="1" stop-color="rgb(78.138733%, 85.68573%, 100%)" offset="0.515625"/><stop stop-opacity="1" stop-color="rgb(77.914429%, 85.539246%, 100%)" offset="0.53125"/><stop stop-opacity="1" stop-color="rgb(77.69165%, 85.392761%, 100%)" offset="0.546875"/><stop stop-opacity="1" stop-color="rgb(77.467346%, 85.246277%, 100%)" offset="0.5625"/><stop stop-opacity="1" stop-color="rgb(77.244568%, 85.099792%, 100%)" offset="0.578125"/><stop stop-opacity="1" stop-color="rgb(77.020264%, 84.953308%, 100%)" offset="0.59375"/><stop stop-opacity="1" stop-color="rgb(76.797485%, 84.80835%, 100%)" offset="0.609375"/><stop stop-opacity="1" stop-color="rgb(76.573181%, 84.661865%, 100%)" offset="0.625"/><stop stop-opacity="1" stop-color="rgb(76.350403%, 84.515381%, 100%)" offset="0.640625"/><stop stop-opacity="1" stop-color="rgb(76.127625%, 84.368896%, 100%)" offset="0.65625"/><stop stop-opacity="1" stop-color="rgb(75.90332%, 84.222412%, 100%)" offset="0.671875"/><stop stop-opacity="1" stop-color="rgb(75.680542%, 84.075928%, 100%)" offset="0.6875"/><stop stop-opacity="1" stop-color="rgb(75.456238%, 83.929443%, 100%)" offset="0.703125"/><stop stop-opacity="1" stop-color="rgb(75.233459%, 83.782959%, 100%)" offset="0.71875"/><stop stop-opacity="1" stop-color="rgb(75.009155%, 83.636475%, 100%)" offset="0.734375"/><stop stop-opacity="1" stop-color="rgb(74.786377%, 83.491516%, 100%)" offset="0.75"/><stop stop-opacity="1" stop-color="rgb(74.562073%, 83.345032%, 100%)" offset="0.765625"/><stop stop-opacity="1" stop-color="rgb(74.339294%, 83.198547%, 100%)" offset="0.78125"/><stop stop-opacity="1" stop-color="rgb(74.116516%, 83.052063%, 100%)" offset="0.796875"/><stop stop-opacity="1" stop-color="rgb(73.892212%, 82.905579%, 100%)" offset="0.8125"/><stop stop-opacity="1" stop-color="rgb(73.669434%, 82.759094%, 100%)" offset="0.828125"/><stop stop-opacity="1" stop-color="rgb(73.445129%, 82.61261%, 100%)" offset="0.84375"/><stop stop-opacity="1" stop-color="rgb(73.222351%, 82.466125%, 100%)" offset="0.859375"/><stop stop-opacity="1" stop-color="rgb(72.998047%, 82.319641%, 100%)" offset="0.861121"/><stop stop-opacity="1" stop-color="rgb(72.886658%, 82.247925%, 100%)" offset="0.875"/><stop stop-opacity="1" stop-color="rgb(72.775269%, 82.174683%, 100%)" offset="0.890625"/><stop stop-opacity="1" stop-color="rgb(72.550964%, 82.028198%, 100%)" offset="0.90625"/><stop stop-opacity="1" stop-color="rgb(72.328186%, 81.881714%, 100%)" offset="0.921875"/><stop stop-opacity="1" stop-color="rgb(72.103882%, 81.735229%, 100%)" offset="0.9375"/><stop stop-opacity="1" stop-color="rgb(71.881104%, 81.588745%, 100%)" offset="0.953125"/><stop stop-opacity="1" stop-color="rgb(71.658325%, 81.442261%, 100%)" offset="0.96875"/><stop stop-opacity="1" stop-color="rgb(71.434021%, 81.295776%, 100%)" offset="0.984375"/><stop stop-opacity="1" stop-color="rgb(71.211243%, 81.149292%, 100%)" offset="1"/></linearGradient><mask id="04beda9c0f"><g filter="url(#d2fd9a7678)"><rect x="-37.5" width="450" fill="#000000" y="-37.499999" height="449.999989" fill-opacity="0.6"/></g></mask><clipPath id="8e47388e78"><path d="M 0.199219 0.558594 L 4.28125 0.558594 L 4.28125 4.398438 L 0.199219 4.398438 Z M 0.199219 0.558594 " clip-rule="nonzero"/></clipPath><clipPath id="0071372714"><rect x="0" width="5" y="0" height="5"/></clipPath><mask id="ad60b40a78"><g filter="url(#d2fd9a7678)"><rect x="-37.5" width="450" fill="#000000" y="-37.499999" height="449.999989" fill-opacity="0.6"/></g></mask><clipPath id="68011d97aa"><path d="M 0.0390625 1 L 3.878906 1 L 3.878906 4.558594 L 0.0390625 4.558594 Z M 0.0390625 1 " clip-rule="nonzero"/></clipPath><clipPath id="faf2f930f5"><rect x="0" width="4" y="0" height="5"/></clipPath><clipPath id="a27807264f"><path d="M 135 37.5 L 299 37.5 L 299 148 L 135 148 Z M 135 37.5 " clip-rule="nonzero"/></clipPath><clipPath id="e10a0c90c7"><path d="M 143.679688 37.5625 L 290.355469 37.5625 C 294.640625 37.5625 298.113281 41.035156 298.113281 45.316406 L 298.113281 139.75 C 298.113281 144.03125 294.640625 147.503906 290.355469 147.503906 L 143.679688 147.503906 C 139.394531 147.503906 135.917969 144.03125 135.917969 139.75 L 135.917969 45.316406 C 135.917969 41.035156 139.394531 37.5625 143.679688 37.5625 Z M 143.679688 37.5625 " clip-rule="nonzero"/></clipPath><linearGradient x1="2489.526767" gradientTransform="matrix(0.0936314, 0, 0, 0.0935464, 0.00170785, 37.499999)" y1="-63.947083" x2="2366.233899" gradientUnits="userSpaceOnUse" y2="1261.036144" id="b729a98211"><stop stop-opacity="1" stop-color="rgb(95.497131%, 97.050476%, 100%)" offset="0"/><stop stop-opacity="1" stop-color="rgb(95.346069%, 96.951294%, 100%)" offset="0.015625"/><stop stop-opacity="1" stop-color="rgb(95.043945%, 96.754456%, 100%)" offset="0.03125"/><stop stop-opacity="1" stop-color="rgb(94.743347%, 96.557617%, 100%)" offset="0.046875"/><stop stop-opacity="1" stop-color="rgb(94.441223%, 96.360779%, 100%)" offset="0.0625"/><stop stop-opacity="1" stop-color="rgb(94.140625%, 96.162415%, 100%)" offset="0.078125"/><stop stop-opacity="1" stop-color="rgb(93.838501%, 95.965576%, 100%)" offset="0.09375"/><stop stop-opacity="1" stop-color="rgb(93.537903%, 95.768738%, 100%)" offset="0.109375"/><stop stop-opacity="1" stop-color="rgb(93.235779%, 95.570374%, 100%)" offset="0.120611"/><stop stop-opacity="1" stop-color="rgb(93.086243%, 95.472717%, 100%)" offset="0.125"/><stop stop-opacity="1" stop-color="rgb(92.935181%, 95.373535%, 100%)" offset="0.140625"/><stop stop-opacity="1" stop-color="rgb(92.633057%, 95.176697%, 100%)" offset="0.15625"/><stop stop-opacity="1" stop-color="rgb(92.332458%, 94.978333%, 100%)" offset="0.171875"/><stop stop-opacity="1" stop-color="rgb(92.030334%, 94.781494%, 100%)" offset="0.1875"/><stop stop-opacity="1" stop-color="rgb(91.729736%, 94.584656%, 100%)" offset="0.203125"/><stop stop-opacity="1" stop-color="rgb(91.427612%, 94.386292%, 100%)" offset="0.21875"/><stop stop-opacity="1" stop-color="rgb(91.127014%, 94.189453%, 100%)" offset="0.234375"/><stop stop-opacity="1" stop-color="rgb(90.82489%, 93.992615%, 100%)" offset="0.25"/><stop stop-opacity="1" stop-color="rgb(90.524292%, 93.795776%, 100%)" offset="0.265625"/><stop stop-opacity="1" stop-color="rgb(90.222168%, 93.597412%, 100%)" offset="0.28125"/><stop stop-opacity="1" stop-color="rgb(89.92157%, 93.400574%, 100%)" offset="0.296875"/><stop stop-opacity="1" stop-color="rgb(89.620972%, 93.203735%, 100%)" offset="0.3125"/><stop stop-opacity="1" stop-color="rgb(89.318848%, 93.005371%, 100%)" offset="0.328125"/><stop stop-opacity="1" stop-color="rgb(89.01825%, 92.808533%, 100%)" offset="0.34375"/><stop stop-opacity="1" stop-color="rgb(88.716125%, 92.611694%, 100%)" offset="0.359375"/><stop stop-opacity="1" stop-color="rgb(88.415527%, 92.41333%, 100%)" offset="0.375"/><stop stop-opacity="1" stop-color="rgb(88.113403%, 92.216492%, 100%)" offset="0.390625"/><stop stop-opacity="1" stop-color="rgb(87.812805%, 92.019653%, 100%)" offset="0.40625"/><stop stop-opacity="1" stop-color="rgb(87.510681%, 91.821289%, 100%)" offset="0.421875"/><stop stop-opacity="1" stop-color="rgb(87.210083%, 91.624451%, 100%)" offset="0.4375"/><stop stop-opacity="1" stop-color="rgb(86.907959%, 91.427612%, 100%)" offset="0.453125"/><stop stop-opacity="1" stop-color="rgb(86.607361%, 91.230774%, 100%)" offset="0.46875"/><stop stop-opacity="1" stop-color="rgb(86.305237%, 91.03241%, 100%)" offset="0.484375"/><stop stop-opacity="1" stop-color="rgb(86.004639%, 90.835571%, 100%)" offset="0.5"/><stop stop-opacity="1" stop-color="rgb(85.702515%, 90.638733%, 100%)" offset="0.515625"/><stop stop-opacity="1" stop-color="rgb(85.401917%, 90.440369%, 100%)" offset="0.53125"/><stop stop-opacity="1" stop-color="rgb(85.099792%, 90.24353%, 100%)" offset="0.546875"/><stop stop-opacity="1" stop-color="rgb(84.799194%, 90.046692%, 100%)" offset="0.5625"/><stop stop-opacity="1" stop-color="rgb(84.49707%, 89.848328%, 100%)" offset="0.578125"/><stop stop-opacity="1" stop-color="rgb(84.196472%, 89.651489%, 100%)" offset="0.59375"/><stop stop-opacity="1" stop-color="rgb(83.894348%, 89.454651%, 100%)" offset="0.609375"/><stop stop-opacity="1" stop-color="rgb(83.59375%, 89.256287%, 100%)" offset="0.625"/><stop stop-opacity="1" stop-color="rgb(83.291626%, 89.059448%, 100%)" offset="0.640625"/><stop stop-opacity="1" stop-color="rgb(82.991028%, 88.86261%, 100%)" offset="0.65625"/><stop stop-opacity="1" stop-color="rgb(82.688904%, 88.665771%, 100%)" offset="0.671875"/><stop stop-opacity="1" stop-color="rgb(82.388306%, 88.467407%, 100%)" offset="0.6875"/><stop stop-opacity="1" stop-color="rgb(82.086182%, 88.270569%, 100%)" offset="0.703125"/><stop stop-opacity="1" stop-color="rgb(81.785583%, 88.07373%, 100%)" offset="0.71875"/><stop stop-opacity="1" stop-color="rgb(81.483459%, 87.875366%, 100%)" offset="0.734375"/><stop stop-opacity="1" stop-color="rgb(81.182861%, 87.678528%, 100%)" offset="0.75"/><stop stop-opacity="1" stop-color="rgb(80.880737%, 87.481689%, 100%)" offset="0.765625"/><stop stop-opacity="1" stop-color="rgb(80.580139%, 87.283325%, 100%)" offset="0.78125"/><stop stop-opacity="1" stop-color="rgb(80.278015%, 87.086487%, 100%)" offset="0.796875"/><stop stop-opacity="1" stop-color="rgb(79.977417%, 86.889648%, 100%)" offset="0.8125"/><stop stop-opacity="1" stop-color="rgb(79.675293%, 86.691284%, 100%)" offset="0.828125"/><stop stop-opacity="1" stop-color="rgb(79.374695%, 86.494446%, 100%)" offset="0.84375"/><stop stop-opacity="1" stop-color="rgb(79.072571%, 86.297607%, 100%)" offset="0.859375"/><stop stop-opacity="1" stop-color="rgb(78.771973%, 86.100769%, 100%)" offset="0.875"/><stop stop-opacity="1" stop-color="rgb(78.469849%, 85.902405%, 100%)" offset="0.879389"/><stop stop-opacity="1" stop-color="rgb(78.320312%, 85.804749%, 100%)" offset="0.890625"/><stop stop-opacity="1" stop-color="rgb(78.16925%, 85.705566%, 100%)" offset="0.90625"/><stop stop-opacity="1" stop-color="rgb(77.867126%, 85.508728%, 100%)" offset="0.921875"/><stop stop-opacity="1" stop-color="rgb(77.566528%, 85.310364%, 100%)" offset="0.9375"/><stop stop-opacity="1" stop-color="rgb(77.264404%, 85.113525%, 100%)" offset="0.953125"/><stop stop-opacity="1" stop-color="rgb(76.963806%, 84.916687%, 100%)" offset="0.96875"/><stop stop-opacity="1" stop-color="rgb(76.661682%, 84.718323%, 100%)" offset="0.984375"/><stop stop-opacity="1" stop-color="rgb(76.361084%, 84.521484%, 100%)" offset="1"/></linearGradient><clipPath id="7c3cd5a39d"><path d="M 304 37.5 L 372.664062 37.5 L 372.664062 127 L 304 127 Z M 304 37.5 " clip-rule="nonzero"/></clipPath><clipPath id="097c4592ba"><path d="M 227 37.5 L 372.664062 37.5 L 372.664062 205 L 227 205 Z M 227 37.5 " clip-rule="nonzero"/></clipPath><clipPath id="af5a6b2f5a"><path d="M 59 331 L 367 331 L 367 338.929688 L 59 338.929688 Z M 59 331 " clip-rule="nonzero"/></clipPath></defs><g clip-path="url(#e1bbbf208f)"><path fill="#1c85e8" d="M 80.527344 37.5 L 123.789062 37.5 C 126.703125 37.5 129.066406 39.859375 129.066406 42.773438 L 129.066406 89.570312 C 129.066406 92.480469 126.703125 94.84375 123.789062 94.84375 L 80.527344 94.84375 C 77.613281 94.84375 75.25 92.480469 75.25 89.570312 L 75.25 42.773438 C 75.25 39.859375 77.613281 37.5 80.527344 37.5 Z M 80.527344 37.5 " fill-opacity="1" fill-rule="nonzero"/></g><path stroke-linecap="round" transform="matrix(0.0936314, 0, 0, 0.0935464, 0.00170785, 37.499998)" fill="none" stroke-linejoin="miter" d="M 1308.42883 460.750775 L 1160.324787 460.750775 " stroke="#ffffff" stroke-width="33.686001" stroke-opacity="1" stroke-miterlimit="10"/><path stroke-linecap="round" transform="matrix(0.0936314, 0, 0, 0.0935464, 0.00170785, 37.499998)" fill="none" stroke-linejoin="miter" d="M 1308.42883 529.900969 L 1002.333235 529.900969 " stroke="#ffffff" stroke-width="33.686001" stroke-opacity="0.4" stroke-miterlimit="10"/><g clip-path="url(#6f93869d96)"><path stroke-linecap="round" transform="matrix(0.0936314, 0, 0, 0.0935464, 0.00170785, 37.499998)" fill="none" stroke-linejoin="miter" d="M 1305.174713 173.794173 L 1228.577805 173.794173 C 1222.945679 173.794173 1217.396993 175.255681 1212.515817 178.053424 C 1207.634642 180.851167 1203.587855 184.901632 1200.750933 189.745486 L 1126.573753 316.562599 C 1123.653391 321.573482 1119.439727 325.665704 1114.391674 328.463447 C 1109.38534 331.302948 1103.669776 332.680941 1097.870772 332.513912 C 1092.113488 332.388639 1086.481363 330.676588 1081.600187 327.586543 C 1076.719012 324.538255 1072.755664 320.195489 1070.085619 315.059334 L 1024.235945 226.032635 C 1021.5659 220.812964 1017.519114 216.428441 1012.51278 213.338396 C 1007.548166 210.290109 1001.790882 208.619814 995.950159 208.536299 L 861.404937 207.116549 " stroke="#ffffff" stroke-width="18.128" stroke-opacity="1" stroke-miterlimit="10"/></g><g clip-path="url(#c724acf401)"><path stroke-linecap="round" transform="matrix(0.0936314, 0, 0, 0.0935464, 0.00170785, 37.499998)" fill="none" stroke-linejoin="miter" d="M 1305.174713 310.215479 L 1267.502051 310.215479 C 1258.991283 310.215479 1250.814271 306.833133 1244.764951 300.86183 L 1070.627972 127.902831 C 1064.578652 121.88977 1056.44336 118.549181 1047.932592 118.549181 L 996.951426 118.549181 C 989.650522 118.549181 982.599935 121.012866 976.884371 125.522661 C 971.168806 130.074213 967.163739 136.379575 965.536681 143.478327 L 938.752795 258.812165 C 937.125736 265.910917 933.120669 272.258036 927.405105 276.767831 C 921.73126 281.319384 914.638953 283.783068 907.379769 283.783068 L 861.404937 283.783068 " stroke="#ffffff" stroke-width="18.128" stroke-opacity="0.4" stroke-miterlimit="10"/></g><g clip-path="url(#25566e628a)"><path fill="#5661ae" d="M 18.875 322.992188 C 18.875 322.992188 20.457031 338.929688 47.941406 338.929688 L 80.167969 338.929688 L 37.417969 305.722656 Z M 18.875 322.992188 " fill-opacity="1" fill-rule="nonzero"/></g><g clip-path="url(#148ab936ae)"><path fill="#5661ae" d="M 82.820312 138.296875 L 7.144531 155.050781 C 6.46875 155.195312 5.828125 155.460938 5.253906 155.835938 C 3.160156 157.214844 -0.578125 161.25 0.140625 172.28125 C 1.097656 186.988281 18.875 322.992188 18.875 322.992188 L 91.53125 260.144531 Z M 82.820312 138.296875 " fill-opacity="1" fill-rule="nonzero"/></g><path fill="#1c85e8" d="M 90.90625 137.863281 L 14.679688 154.738281 C 14.679688 154.738281 8.160156 157.113281 8.226562 171.851562 C 8.292969 186.585938 26.960938 322.558594 26.960938 322.558594 L 99.621094 259.710938 Z M 90.90625 137.863281 " fill-opacity="1" fill-rule="nonzero"/><path fill="#bc775c" d="M 89.667969 145.632812 C 89.667969 145.632812 88.328125 165.046875 87.738281 168.121094 C 86.703125 173.511719 63.007812 162.191406 64.746094 157.394531 C 65.644531 154.902344 69.75 131.183594 69.75 131.183594 Z M 89.667969 145.632812 " fill-opacity="1" fill-rule="nonzero"/><path stroke-linecap="butt" transform="matrix(0.0936314, 0, 0, 0.0935464, 0.00170785, 37.499998)" fill-opacity="1" fill="#93523e" fill-rule="nonzero" stroke-linejoin="miter" d="M 935.540397 1388.348847 L 957.192791 1175.929139 L 828.947206 1175.929139 Z M 935.540397 1388.348847 " stroke="#93523e" stroke-width="4.532" stroke-opacity="1" stroke-miterlimit="4"/><path fill="#bc775c" d="M 59.546875 127.023438 C 58.632812 117.25 69.726562 119.355469 71.625 119.796875 C 73.519531 120.238281 76.492188 105.753906 76.492188 105.753906 C 76.492188 105.753906 98.386719 101.859375 103.074219 105.746094 C 103.074219 105.746094 106.019531 124 106.492188 135.691406 C 106.96875 147.382812 103.683594 152.617188 99.394531 153.019531 C 93.550781 154.0625 86.636719 152.886719 82.222656 150.285156 C 74.351562 145.648438 70.992188 137.269531 70.992188 137.269531 C 70.851562 137.203125 70.777344 137.167969 70.777344 137.167969 C 70.777344 137.167969 60.410156 136.253906 59.546875 127.023438 Z M 59.546875 127.023438 " fill-opacity="1" fill-rule="nonzero"/><path fill="#493212" d="M 105.03125 123.390625 C 105.03125 123.390625 103.789062 112.457031 103.628906 109.429688 C 103.402344 105.070312 100.214844 106.472656 97.933594 109.527344 C 94.648438 114.066406 88.386719 113.777344 83.121094 112.355469 C 78.5 111.230469 78.429688 111.496094 78.011719 116.371094 C 77.585938 121.246094 76.011719 130.300781 74.53125 128.132812 C 72.691406 125.296875 71.433594 122.640625 68.195312 120.914062 C 63.796875 118.570312 59.28125 122.898438 60.339844 126.238281 C 61.402344 129.582031 63.886719 133.429688 69.425781 136.589844 L 66.714844 149.144531 C 52.980469 130.109375 47.804688 103.964844 66.433594 97.910156 C 73.394531 95.648438 80.621094 80.992188 94.089844 84.328125 C 103.628906 86.6875 103.628906 94.328125 104.308594 100.972656 C 117.125 101.527344 105.03125 123.390625 105.03125 123.390625 Z M 105.03125 123.390625 " fill-opacity="1" fill-rule="nonzero"/><g clip-path="url(#57375c1a43)"><path fill="#ffccb3" d="M 112.828125 288.054688 L 165.363281 297.378906 L 155.023438 338.929688 L 121.371094 338.929688 C 121.371094 338.929688 105.375 304.574219 112.828125 288.054688 Z M 112.828125 288.054688 " fill-opacity="1" fill-rule="nonzero"/></g><g clip-path="url(#76fad8e18a)"><path fill="#ff967c" d="M 146.371094 291.695312 C 146.371094 291.695312 138.273438 294.183594 134.933594 307.378906 C 131.589844 320.570312 135.234375 338.929688 135.234375 338.929688 L 130.03125 338.929688 C 130.03125 338.929688 111.464844 317.148438 125.125 289.386719 Z M 146.371094 291.695312 " fill-opacity="1" fill-rule="nonzero"/></g><g clip-path="url(#96f23e010f)"><path fill="#1f2d49" d="M 36.542969 274.960938 C 36.542969 274.960938 32.496094 305.164062 38.539062 319.5625 C 43.679688 331.804688 51.625 338.75 61.269531 338.929688 L 135.238281 338.929688 C 135.238281 338.929688 135.351562 299.457031 166.550781 292.714844 C 166.550781 292.714844 63.875 264.144531 36.542969 274.960938 Z M 36.542969 274.960938 " fill-opacity="1" fill-rule="nonzero"/></g><path fill="#0d1b33" d="M 35.121094 284.121094 L 102.234375 286.328125 L 101.519531 281.644531 L 88.441406 280.132812 L 35.214844 280.132812 Z M 35.121094 284.121094 " fill-opacity="1" fill-rule="nonzero"/><path fill="#febb94" d="M 87.207031 165.804688 C 87.785156 168.25 87.933594 159.601562 89.101562 159.960938 C 94.441406 161.617188 109.644531 166.355469 112.878906 167.707031 C 116.816406 169.355469 117.078125 175.9375 117.339844 180.601562 C 117.527344 183.871094 112.65625 229.746094 112.414062 260.824219 C 112.363281 267.464844 119.089844 275.238281 119.882812 278.929688 C 120.105469 279.921875 120.222656 280.9375 120.238281 281.953125 C 120.242188 282.664062 119.964844 283.347656 119.464844 283.851562 C 118.964844 284.355469 118.285156 284.644531 117.574219 284.648438 L 37.433594 285.398438 C 37.433594 285.398438 33.882812 285.914062 34.738281 281.863281 C 35.589844 277.429688 36.050781 272.9375 36.132812 268.425781 C 36.929688 236.144531 37.082031 182.082031 37.429688 179.523438 C 37.957031 175.683594 33.828125 172.375 38.300781 170.441406 L 63.121094 160.53125 C 63.121094 160.53125 67.667969 163.847656 68.328125 164.183594 C 80.796875 170.554688 87.207031 165.804688 87.207031 165.804688 Z M 87.207031 165.804688 " fill-opacity="1" fill-rule="nonzero"/><path stroke-linecap="butt" transform="matrix(0.0936314, 0, 0, 0.0935464, 0.00170785, 37.499998)" fill="none" stroke-linejoin="miter" d="M 876.215341 1406.805601 C 876.215341 1406.805601 906.503661 1517.963703 892.485926 1625.321884 C 878.509911 1732.721823 933.663022 1879.624228 945.094151 1997.505265 C 956.52528 2115.428059 900.579499 2269.888546 909.340583 2368.81174 C 918.059948 2467.776692 886.311448 2650.214613 886.311448 2650.214613 " stroke="#ff967c" stroke-width="13.596" stroke-opacity="1" stroke-miterlimit="10"/><g clip-path="url(#8f30ca003a)"><g clip-path="url(#c3b2426c8c)"><path fill="url(#a5c48e63a2)" d="M 59.492188 198.3125 L 59.492188 331.230469 L 366.113281 331.230469 L 366.113281 198.3125 Z M 59.492188 198.3125 " fill-rule="nonzero"/></g></g><path fill="#96bafd" d="M 170.03125 254.984375 L 164.675781 287.378906 L 134.929688 307.378906 L 85.140625 302.003906 L 97.371094 287.378906 Z M 170.03125 254.984375 " fill-opacity="1" fill-rule="nonzero"/><path fill="#ffffff" d="M 198.648438 222.828125 L 176.355469 263.898438 L 143.15625 295.363281 L 170.03125 254.984375 Z M 198.648438 222.828125 " fill-opacity="1" fill-rule="nonzero"/><path fill="#5ca4e6" d="M 198.648438 222.828125 L 176.355469 263.898438 L 178.503906 265.550781 L 200.464844 223.933594 Z M 198.648438 222.828125 " fill-opacity="1" fill-rule="nonzero"/><path fill="#5ca4e6" d="M 176.355469 263.898438 L 143.15625 295.363281 L 143.15625 297.378906 L 178.503906 265.550781 Z M 176.355469 263.898438 " fill-opacity="1" fill-rule="nonzero"/><path fill="#5ca4e6" d="M 143.15625 297.378906 L 97.371094 289.019531 L 97.371094 287.378906 L 143.15625 295.363281 Z M 143.15625 297.378906 " fill-opacity="1" fill-rule="nonzero"/><path fill="#e7efff" d="M 97.371094 287.378906 L 127.195312 249.238281 L 170.03125 254.984375 L 143.15625 295.363281 Z M 97.371094 287.378906 " fill-opacity="1" fill-rule="nonzero"/><path fill="#ff967c" d="M 59.910156 187.804688 C 59.910156 187.804688 63.503906 207.457031 61.269531 226.675781 C 59.875 238.703125 52.199219 251.046875 52.296875 256.785156 C 52.453125 266.082031 63.085938 270.015625 63.117188 275.398438 C 63.136719 278.582031 54.527344 276.601562 50.722656 275.363281 C 42.171875 272.582031 36.550781 276.359375 36.550781 276.359375 L 38.832031 194.828125 Z M 59.910156 187.804688 " fill-opacity="1" fill-rule="nonzero"/><path fill="#febb94" d="M 37.0625 183.027344 C 44.949219 173.160156 48.488281 177.886719 51.261719 178.128906 C 51.261719 178.128906 60.648438 179.875 59.910156 187.804688 C 59.128906 196.195312 45.320312 252.117188 45.320312 252.117188 L 16.332031 249.941406 L 17.707031 242.230469 L 20.539062 226.347656 L 23.554688 209.367188 L 23.820312 207.34375 L 27.210938 185.003906 C 27.210938 185.003906 32.976562 188.292969 37.0625 183.027344 Z M 37.0625 183.027344 " fill-opacity="1" fill-rule="nonzero"/><path fill="#febb94" d="M 35.113281 200.054688 C 27.40625 195.328125 24.992188 185.253906 29.722656 177.554688 C 34.457031 169.855469 44.539062 167.445312 52.246094 172.171875 C 59.957031 176.898438 62.367188 186.972656 57.632812 194.671875 C 52.902344 202.371094 42.820312 204.78125 35.113281 200.054688 Z M 35.113281 200.054688 " fill-opacity="1" fill-rule="nonzero"/><path fill="#bc775c" d="M 104.492188 254.441406 L 122.765625 255.800781 L 127.085938 265.980469 L 125.609375 278.546875 C 125.609375 278.546875 122.464844 277.265625 122.140625 272.820312 C 121.816406 268.375 107.265625 271.527344 103.460938 266.644531 " fill-opacity="1" fill-rule="nonzero"/><path fill="#febb94" d="M 34.777344 237.972656 L 105.683594 251.328125 C 106.113281 251.425781 106.484375 251.675781 106.738281 252.035156 C 106.988281 252.390625 107.097656 252.828125 107.046875 253.261719 L 105.328125 266.742188 C 105.238281 267.386719 104.914062 267.976562 104.414062 268.394531 C 103.914062 268.8125 103.277344 269.027344 102.628906 269.003906 L 29.589844 266.148438 Z M 34.777344 237.972656 " fill-opacity="1" fill-rule="nonzero"/><path fill="#febb94" d="M 30.585938 266.257812 C 22.574219 266.257812 16.078125 259.769531 16.078125 251.761719 C 16.078125 243.757812 22.574219 237.265625 30.585938 237.265625 C 38.597656 237.265625 45.09375 243.757812 45.09375 251.761719 C 45.09375 259.769531 38.597656 266.257812 30.585938 266.257812 Z M 30.585938 266.257812 " fill-opacity="1" fill-rule="nonzero"/><path fill="#febb94" d="M 103.957031 185.851562 C 101.589844 174.175781 107.15625 174.476562 109.007812 172.617188 C 109.007812 172.617188 115.960938 166.890625 121.257812 172.230469 C 126.863281 177.875 159 221.742188 159 221.742188 L 138.890625 240.21875 L 135.113281 235.710938 L 125.320312 224.046875 L 114.847656 211.578125 L 113.546875 210.15625 L 99.421875 194.171875 C 99.421875 194.171875 105.292969 192 103.957031 185.851562 Z M 103.957031 185.851562 " fill-opacity="1" fill-rule="nonzero"/><path fill="#febb94" d="M 95.546875 187.839844 C 92.832031 179.757812 97.199219 171.007812 105.292969 168.296875 C 113.382812 165.589844 122.140625 169.949219 124.851562 178.035156 C 127.5625 186.121094 123.199219 194.871094 115.109375 197.578125 C 107.015625 200.285156 98.253906 195.925781 95.546875 187.839844 Z M 95.546875 187.839844 " fill-opacity="1" fill-rule="nonzero"/><path fill="#ff967c" d="M 114.847656 211.578125 C 115.449219 205.085938 117.605469 195.363281 117.605469 195.363281 C 117.605469 195.363281 119.464844 195.191406 125.207031 208.007812 C 129.457031 217.613281 134.386719 227.402344 135.203125 235.683594 L 125.414062 224.015625 Z M 114.847656 211.578125 " fill-opacity="1" fill-rule="nonzero"/><path fill="#bc775c" d="M 154.113281 164.882812 C 155.160156 155.007812 152.472656 154.53125 152.433594 149.175781 C 152.417969 143.945312 144.507812 134.257812 148.28125 134.453125 C 152.050781 134.648438 154.699219 138.25 154.699219 138.25 C 155.257812 133.554688 154.316406 125.746094 159.121094 122.796875 C 163.929688 119.851562 165.0625 121.277344 168.976562 122.449219 C 179.425781 125.65625 173.59375 139.472656 173.484375 143.851562 C 173.390625 146.605469 168.539062 156.914062 168.320312 158.816406 L 166.773438 166.144531 Z M 154.113281 164.882812 " fill-opacity="1" fill-rule="nonzero"/><path stroke-linecap="round" transform="matrix(0.0936314, 0, 0, 0.0935464, 0.00170785, 37.499998)" fill="none" stroke-linejoin="miter" d="M 1709.561329 1059.300822 L 1724.830647 907.763351 " stroke="#93523e" stroke-width="6.868" stroke-opacity="1" stroke-miterlimit="4"/><path stroke-linecap="round" transform="matrix(0.0936314, 0, 0, 0.0935464, 0.00170785, 37.499998)" fill="none" stroke-linejoin="miter" d="M 1761.752359 1060.92936 L 1786.617151 915.404948 " stroke="#93523e" stroke-width="6.868" stroke-opacity="1" stroke-miterlimit="4"/><path stroke-linecap="round" transform="matrix(0.0936314, 0, 0, 0.0935464, 0.00170785, 37.499998)" fill="none" stroke-linejoin="miter" d="M 1823.121669 1061.305176 L 1835.679223 974.199316 " stroke="#93523e" stroke-width="6.868" stroke-opacity="1" stroke-miterlimit="4"/><path fill="#93523e" d="M 162.78125 147.410156 C 161.070312 143.421875 156.640625 139.585938 156.640625 139.585938 Z M 162.78125 147.410156 " fill-opacity="1" fill-rule="nonzero"/><path stroke-linecap="round" transform="matrix(0.0936314, 0, 0, 0.0935464, 0.00170785, 37.499998)" fill="none" stroke-linejoin="miter" d="M 1738.514627 1174.926962 C 1720.241508 1132.292694 1672.931653 1091.286963 1672.931653 1091.286963 " stroke="#93523e" stroke-width="6.868" stroke-opacity="1" stroke-miterlimit="4"/><path fill="#febb94" d="M 135.804688 225.679688 L 151.464844 166.140625 C 151.578125 165.746094 151.839844 165.410156 152.191406 165.191406 C 152.542969 164.976562 152.960938 164.898438 153.367188 164.972656 L 165.976562 167.375 C 166.578125 167.496094 167.117188 167.839844 167.480469 168.332031 C 167.84375 168.828125 168.011719 169.4375 167.949219 170.046875 L 162.066406 232.203125 Z M 135.804688 225.679688 " fill-opacity="1" fill-rule="nonzero"/><path fill="#febb94" d="M 166.914062 169.953125 C 166.914062 169.953125 168.46875 164.011719 166.914062 163.355469 C 165.363281 162.703125 155.632812 160.847656 154.328125 162.0625 C 153.023438 163.277344 151.882812 168.339844 151.882812 168.339844 Z M 166.914062 169.953125 " fill-opacity="1" fill-rule="nonzero"/><path fill="#febb94" d="M 148.5625 244.109375 C 141 244.109375 134.871094 237.984375 134.871094 230.429688 C 134.871094 222.871094 141 216.746094 148.5625 216.746094 C 156.125 216.746094 162.253906 222.871094 162.253906 230.429688 C 162.253906 237.984375 156.125 244.109375 148.5625 244.109375 Z M 148.5625 244.109375 " fill-opacity="1" fill-rule="nonzero"/><path fill="#ffffff" d="M 251.867188 243.867188 L 291.035156 244.089844 L 291.035156 281.6875 L 232.734375 278.292969 Z M 251.867188 243.867188 " fill-opacity="1" fill-rule="nonzero"/><path stroke-linecap="round" transform="matrix(0.0936314, 0, 0, 0.0935464, 0.00170785, 37.499998)" fill="none" stroke-linejoin="miter" d="M 2729.560131 2245.209945 L 2660.389285 2387.310252 " stroke="#1c85e8" stroke-width="17.296" stroke-opacity="1" stroke-miterlimit="10"/><path stroke-linecap="round" transform="matrix(0.0936314, 0, 0, 0.0935464, 0.00170785, 37.499998)" fill="none" stroke-linejoin="miter" d="M 2796.97876 2245.209945 L 2771.029263 2298.49234 " stroke="#1c85e8" stroke-width="17.296" stroke-opacity="0.4" stroke-miterlimit="10"/><path fill="#1c85e8" d="M 288.394531 247.53125 L 269.023438 247.082031 L 267.597656 251.816406 L 288.007812 252.515625 Z M 288.394531 247.53125 " fill-opacity="0.4" fill-rule="nonzero"/><path fill="#1c85e8" d="M 287.851562 255.234375 L 276.476562 254.929688 L 275.054688 259.664062 L 287.464844 260.21875 Z M 287.851562 255.234375 " fill-opacity="0.4" fill-rule="nonzero"/><path fill="#1c85e8" d="M 287.851562 263.625 L 268.476562 263.175781 L 267.054688 267.910156 L 287.464844 268.605469 Z M 287.851562 263.625 " fill-opacity="0.4" fill-rule="nonzero"/><path fill="#1c85e8" d="M 287.308594 271.328125 L 275.933594 271.019531 L 274.507812 275.753906 L 286.921875 276.308594 Z M 287.308594 271.328125 " fill-opacity="0.4" fill-rule="nonzero"/><path fill="#1c85e8" d="M 320.644531 307.378906 L 277.453125 280.355469 L 246.828125 289.054688 L 283.738281 321.46875 Z M 320.644531 307.378906 " fill-opacity="1" fill-rule="nonzero"/><path fill="#ffffff" d="M 82.140625 167.554688 C 82.140625 167.554688 67.667969 162.707031 64.949219 156.300781 C 64.949219 156.300781 58.34375 157.25 55.75 159.730469 C 53.167969 162.214844 46.871094 162.953125 52.328125 165.710938 C 57.785156 168.46875 79.066406 170.808594 80.363281 170.445312 C 81.65625 170.085938 82.140625 167.554688 82.140625 167.554688 Z M 82.140625 167.554688 " fill-opacity="1" fill-rule="nonzero"/><path fill="#ffffff" d="M 88.136719 158.730469 L 88.136719 161.976562 C 88.136719 161.976562 86.84375 166.632812 82.140625 167.554688 C 82.140625 167.554688 81.40625 170.125 83.996094 170.429688 C 86.578125 170.734375 94.097656 166.9375 95.207031 166.566406 C 96.316406 166.199219 96.804688 164.667969 94.648438 163.441406 C 94.648438 163.441406 93.878906 159.238281 88.136719 158.730469 Z M 88.136719 158.730469 " fill-opacity="1" fill-rule="nonzero"/><path fill="#ffffff" d="M 74.957031 204.183594 C 74.976562 204.183594 75 204.183594 75.015625 204.179688 C 75.085938 204.164062 75.152344 204.117188 75.1875 204.054688 C 75.226562 203.992188 75.242188 203.917969 75.226562 203.84375 C 74.4375 200.402344 76.644531 196.152344 78.773438 192.039062 C 80.359375 188.984375 81.996094 185.824219 82.410156 182.976562 C 83.390625 176.363281 80.714844 168.9375 80.683594 168.863281 C 80.660156 168.796875 80.609375 168.738281 80.539062 168.707031 C 80.472656 168.675781 80.398438 168.671875 80.328125 168.699219 C 80.292969 168.710938 80.265625 168.730469 80.234375 168.753906 C 80.210938 168.777344 80.1875 168.808594 80.171875 168.839844 C 80.152344 168.875 80.144531 168.910156 80.144531 168.945312 C 80.144531 168.980469 80.148438 169.019531 80.164062 169.054688 C 80.1875 169.125 82.824219 176.425781 81.871094 182.898438 C 81.457031 185.652344 79.84375 188.765625 78.28125 191.78125 C 76.105469 195.984375 73.851562 200.332031 74.6875 203.972656 C 74.699219 204.035156 74.730469 204.089844 74.78125 204.125 C 74.835938 204.164062 74.894531 204.1875 74.957031 204.183594 Z M 74.957031 204.183594 " fill-opacity="1" fill-rule="nonzero"/><path fill="#ffffff" d="M 85.230469 201.03125 C 85.292969 201.03125 85.351562 201.011719 85.402344 200.972656 C 85.449219 200.933594 85.484375 200.878906 85.496094 200.820312 C 87.238281 193.53125 85.375 181.035156 84.761719 177.375 C 84.253906 174.609375 84.074219 171.792969 84.230469 168.988281 C 84.234375 168.914062 84.210938 168.84375 84.164062 168.785156 C 84.117188 168.730469 84.054688 168.695312 83.976562 168.6875 C 83.90625 168.679688 83.835938 168.703125 83.777344 168.746094 C 83.71875 168.792969 83.683594 168.859375 83.675781 168.929688 C 83.515625 171.785156 83.699219 174.648438 84.214844 177.464844 C 84.828125 181.101562 86.675781 193.503906 84.957031 200.691406 C 84.949219 200.734375 84.945312 200.777344 84.957031 200.816406 C 84.964844 200.859375 84.984375 200.898438 85.007812 200.929688 C 85.035156 200.960938 85.066406 200.988281 85.105469 201.003906 C 85.148438 201.023438 85.1875 201.03125 85.230469 201.03125 Z M 85.230469 201.03125 " fill-opacity="1" fill-rule="nonzero"/><g mask="url(#04beda9c0f)"><g transform="matrix(1, 0, 0, 1, 73, 202)"><g clip-path="url(#0071372714)"><g clip-path="url(#8e47388e78)"><path fill="#ffffff" d="M 2.25 4.175781 C 1.28125 4.175781 0.496094 3.394531 0.496094 2.429688 C 0.496094 1.464844 1.28125 0.679688 2.25 0.679688 C 3.21875 0.679688 4.003906 1.464844 4.003906 2.429688 C 4.003906 3.394531 3.21875 4.175781 2.25 4.175781 Z M 2.25 4.175781 " fill-opacity="0.6" fill-rule="nonzero"/></g></g></g></g><g mask="url(#ad60b40a78)"><g transform="matrix(1, 0, 0, 1, 83, 198)"><g clip-path="url(#faf2f930f5)"><g clip-path="url(#68011d97aa)"><path fill="#ffffff" d="M 1.914062 4.507812 C 0.945312 4.507812 0.160156 3.722656 0.160156 2.757812 C 0.160156 1.792969 0.945312 1.011719 1.914062 1.011719 C 2.882812 1.011719 3.667969 1.792969 3.667969 2.757812 C 3.667969 3.722656 2.882812 4.507812 1.914062 4.507812 Z M 1.914062 4.507812 " fill-opacity="0.6" fill-rule="nonzero"/></g></g></g></g><path stroke-linecap="butt" transform="matrix(0.0936314, 0, 0, 0.0935464, 0.00170785, 37.499998)" fill="none" stroke-linejoin="miter" d="M 2032.261265 142.935481 L 2005.060184 142.935481 " stroke="#5ca4e6" stroke-width="4.532" stroke-opacity="1" stroke-miterlimit="10"/><g clip-path="url(#a27807264f)"><g clip-path="url(#e10a0c90c7)"><path fill="url(#b729a98211)" d="M 135.917969 37.5625 L 135.917969 147.503906 L 298.113281 147.503906 L 298.113281 37.5625 Z M 135.917969 37.5625 " fill-rule="nonzero"/></g></g><path fill="#ffffff" d="M 148.8125 119.660156 L 230.292969 119.660156 C 231.640625 119.660156 232.734375 120.753906 232.734375 122.101562 L 232.734375 133.109375 C 232.734375 134.457031 231.640625 135.550781 230.292969 135.550781 L 148.8125 135.550781 C 147.464844 135.550781 146.371094 134.457031 146.371094 133.109375 L 146.371094 122.101562 C 146.371094 120.753906 147.464844 119.660156 148.8125 119.660156 Z M 148.8125 119.660156 " fill-opacity="1" fill-rule="nonzero"/><path fill="#1c85e8" d="M 244.152344 49.207031 L 286.855469 49.207031 C 288.453125 49.207031 289.753906 50.503906 289.753906 52.101562 L 289.753906 132.652344 C 289.753906 134.253906 288.453125 135.550781 286.855469 135.550781 L 244.152344 135.550781 C 242.550781 135.550781 241.253906 134.253906 241.253906 132.652344 L 241.253906 52.101562 C 241.253906 50.503906 242.550781 49.207031 244.152344 49.207031 Z M 244.152344 49.207031 " fill-opacity="1" fill-rule="nonzero"/><path fill="#ffffff" d="M 265.503906 106.546875 C 258.75 106.546875 253.273438 101.078125 253.273438 94.328125 C 253.273438 87.582031 258.75 82.109375 265.503906 82.109375 C 272.257812 82.109375 277.734375 87.582031 277.734375 94.328125 C 277.734375 101.078125 272.257812 106.546875 265.503906 106.546875 Z M 265.503906 106.546875 " fill-opacity="0.4" fill-rule="nonzero"/><path fill="#ffffff" d="M 269.285156 90.964844 L 269.285156 98.71875 C 269.285156 98.933594 269.230469 99.148438 269.125 99.332031 C 269.015625 99.519531 268.863281 99.675781 268.679688 99.785156 C 268.496094 99.894531 268.285156 99.957031 268.070312 99.960938 C 267.851562 99.960938 267.640625 99.910156 267.453125 99.808594 L 260.355469 95.929688 C 260.160156 95.824219 260 95.664062 259.886719 95.472656 C 259.773438 95.285156 259.710938 95.066406 259.710938 94.84375 C 259.710938 94.621094 259.773438 94.402344 259.886719 94.210938 C 260 94.019531 260.160156 93.863281 260.355469 93.757812 L 267.453125 89.878906 C 267.640625 89.773438 267.851562 89.722656 268.070312 89.726562 C 268.285156 89.730469 268.496094 89.789062 268.679688 89.898438 C 268.863281 90.007812 269.015625 90.164062 269.125 90.351562 C 269.230469 90.539062 269.285156 90.75 269.285156 90.964844 Z M 269.285156 90.964844 " fill-opacity="1" fill-rule="nonzero"/><path stroke-linecap="round" transform="matrix(0.0936314, 0, 0, 0.0935464, 0.00170785, 37.499998)" fill="none" stroke-linejoin="miter" d="M 2462.263623 236.012645 L 2136.434728 236.012645 " stroke="#ffffff" stroke-width="74.095001" stroke-opacity="1" stroke-miterlimit="10"/><path stroke-linecap="round" transform="matrix(0.0936314, 0, 0, 0.0935464, 0.00170785, 37.499998)" fill="none" stroke-linejoin="miter" d="M 2462.263623 388.051205 L 1788.95344 388.051205 " stroke="#ffffff" stroke-width="74.095001" stroke-opacity="0.4" stroke-miterlimit="10"/><path stroke-linecap="round" transform="matrix(0.0936314, 0, 0, 0.0935464, 0.00170785, 37.499998)" fill="none" stroke-linejoin="miter" d="M 2458.258556 589.572241 L 2132.429661 589.572241 " stroke="#ffffff" stroke-width="74.095001" stroke-opacity="1" stroke-miterlimit="10"/><path stroke-linecap="round" transform="matrix(0.0936314, 0, 0, 0.0935464, 0.00170785, 37.499998)" fill="none" stroke-linejoin="miter" d="M 2458.216836 741.610801 L 1784.948373 741.610801 " stroke="#ffffff" stroke-width="74.095001" stroke-opacity="0.4" stroke-miterlimit="10"/><path fill="#1c85e8" d="M 210.933594 126.515625 L 210.933594 125.882812 L 212.367188 125.882812 L 212.367188 131.394531 L 211.664062 131.394531 L 211.664062 126.515625 Z M 213.542969 127.269531 C 213.578125 126.804688 213.761719 126.4375 214.085938 126.171875 C 214.410156 125.910156 214.832031 125.777344 215.351562 125.777344 C 215.699219 125.777344 215.996094 125.839844 216.246094 125.96875 C 216.5 126.089844 216.691406 126.257812 216.816406 126.46875 C 216.949219 126.683594 217.015625 126.925781 217.015625 127.195312 C 217.015625 127.507812 216.925781 127.78125 216.742188 128.011719 C 216.5625 128.238281 216.328125 128.386719 216.039062 128.453125 L 216.039062 128.492188 C 216.371094 128.570312 216.632812 128.730469 216.824219 128.972656 C 217.019531 129.210938 217.113281 129.523438 217.113281 129.910156 C 217.113281 130.199219 217.050781 130.460938 216.917969 130.695312 C 216.785156 130.921875 216.585938 131.101562 216.320312 131.234375 C 216.058594 131.367188 215.738281 131.433594 215.367188 131.433594 C 214.828125 131.433594 214.386719 131.292969 214.039062 131.015625 C 213.695312 130.730469 213.5 130.328125 213.460938 129.808594 L 214.132812 129.808594 C 214.167969 130.113281 214.292969 130.363281 214.503906 130.558594 C 214.71875 130.75 215.003906 130.847656 215.359375 130.847656 C 215.714844 130.847656 215.984375 130.753906 216.167969 130.574219 C 216.355469 130.382812 216.453125 130.140625 216.453125 129.847656 C 216.453125 129.464844 216.324219 129.191406 216.070312 129.023438 C 215.816406 128.855469 215.429688 128.773438 214.917969 128.773438 L 214.742188 128.773438 L 214.742188 128.191406 L 214.925781 128.191406 C 215.390625 128.1875 215.746094 128.113281 215.984375 127.964844 C 216.226562 127.8125 216.34375 127.578125 216.34375 127.261719 C 216.34375 126.992188 216.253906 126.777344 216.078125 126.613281 C 215.90625 126.453125 215.65625 126.371094 215.328125 126.371094 C 215.015625 126.371094 214.757812 126.453125 214.566406 126.613281 C 214.371094 126.777344 214.257812 126.996094 214.222656 127.269531 Z M 217.96875 130.839844 C 218.613281 130.320312 219.121094 129.894531 219.488281 129.566406 C 219.855469 129.230469 220.160156 128.882812 220.410156 128.519531 C 220.664062 128.15625 220.792969 127.796875 220.792969 127.445312 C 220.792969 127.117188 220.710938 126.855469 220.546875 126.667969 C 220.390625 126.476562 220.132812 126.378906 219.777344 126.378906 C 219.429688 126.378906 219.160156 126.488281 218.96875 126.707031 C 218.78125 126.921875 218.679688 127.207031 218.664062 127.566406 L 217.992188 127.566406 C 218.015625 127 218.183594 126.558594 218.511719 126.25 C 218.835938 125.9375 219.257812 125.785156 219.769531 125.785156 C 220.292969 125.785156 220.707031 125.929688 221.015625 126.21875 C 221.324219 126.507812 221.480469 126.90625 221.480469 127.414062 C 221.480469 127.835938 221.351562 128.25 221.097656 128.652344 C 220.847656 129.046875 220.5625 129.398438 220.242188 129.703125 C 219.921875 130.003906 219.511719 130.355469 219.015625 130.753906 L 221.640625 130.753906 L 221.640625 131.335938 L 217.96875 131.335938 Z M 217.96875 130.839844 " fill-opacity="1" fill-rule="nonzero"/><path fill="#f4608a" d="M 165.867188 124.886719 C 165.390625 124.449219 164.765625 124.203125 164.113281 124.203125 C 163.464844 124.203125 162.839844 124.449219 162.363281 124.886719 L 161.703125 125.496094 L 161.039062 124.886719 C 160.5625 124.449219 159.9375 124.203125 159.285156 124.203125 C 158.636719 124.203125 158.011719 124.449219 157.535156 124.886719 C 157.28125 125.117188 157.078125 125.394531 156.941406 125.707031 C 156.804688 126.015625 156.734375 126.351562 156.734375 126.691406 C 156.734375 127.03125 156.804688 127.367188 156.941406 127.675781 C 157.078125 127.988281 157.28125 128.265625 157.535156 128.492188 L 161.703125 132.351562 L 165.867188 128.542969 C 166.132812 128.316406 166.34375 128.039062 166.488281 127.722656 C 166.632812 127.40625 166.707031 127.0625 166.707031 126.71875 C 166.707031 126.371094 166.632812 126.027344 166.488281 125.710938 C 166.34375 125.394531 166.132812 125.113281 165.867188 124.886719 Z M 165.867188 124.886719 " fill-opacity="1" fill-rule="nonzero"/><path fill="#1c85e8" d="M 170.519531 127.269531 C 170.558594 126.804688 170.738281 126.4375 171.0625 126.171875 C 171.386719 125.910156 171.8125 125.777344 172.328125 125.777344 C 172.675781 125.777344 172.972656 125.839844 173.222656 125.96875 C 173.476562 126.089844 173.667969 126.257812 173.792969 126.46875 C 173.925781 126.683594 173.992188 126.925781 173.992188 127.195312 C 173.992188 127.507812 173.902344 127.78125 173.71875 128.011719 C 173.539062 128.238281 173.308594 128.386719 173.015625 128.453125 L 173.015625 128.492188 C 173.347656 128.570312 173.609375 128.730469 173.800781 128.972656 C 173.996094 129.210938 174.09375 129.523438 174.09375 129.910156 C 174.09375 130.199219 174.027344 130.460938 173.894531 130.695312 C 173.761719 130.921875 173.5625 131.101562 173.300781 131.234375 C 173.035156 131.367188 172.714844 131.433594 172.34375 131.433594 C 171.804688 131.433594 171.363281 131.292969 171.015625 131.015625 C 170.671875 130.730469 170.476562 130.328125 170.4375 129.808594 L 171.109375 129.808594 C 171.144531 130.113281 171.269531 130.363281 171.484375 130.558594 C 171.695312 130.75 171.980469 130.847656 172.335938 130.847656 C 172.695312 130.847656 172.964844 130.753906 173.144531 130.574219 C 173.335938 130.382812 173.429688 130.140625 173.429688 129.847656 C 173.429688 129.464844 173.300781 129.191406 173.046875 129.023438 C 172.792969 128.855469 172.410156 128.773438 171.894531 128.773438 L 171.71875 128.773438 L 171.71875 128.191406 L 171.902344 128.191406 C 172.371094 128.1875 172.722656 128.113281 172.964844 127.964844 C 173.203125 127.8125 173.320312 127.578125 173.320312 127.261719 C 173.320312 126.992188 173.234375 126.777344 173.054688 126.613281 C 172.882812 126.453125 172.632812 126.371094 172.308594 126.371094 C 171.992188 126.371094 171.738281 126.453125 171.542969 126.613281 C 171.351562 126.777344 171.234375 126.996094 171.199219 127.269531 Z M 175.863281 130.433594 L 175.007812 132.484375 L 174.542969 132.484375 L 175.097656 130.433594 Z M 180.0625 126.484375 L 177.382812 126.484375 L 177.382812 128.222656 C 177.5 128.0625 177.671875 127.929688 177.902344 127.828125 C 178.128906 127.71875 178.378906 127.667969 178.640625 127.667969 C 179.0625 127.667969 179.40625 127.757812 179.671875 127.933594 C 179.9375 128.105469 180.125 128.332031 180.238281 128.613281 C 180.355469 128.886719 180.414062 129.179688 180.414062 129.488281 C 180.414062 129.855469 180.34375 130.183594 180.207031 130.472656 C 180.070312 130.761719 179.859375 130.992188 179.574219 131.160156 C 179.292969 131.328125 178.945312 131.410156 178.527344 131.410156 C 177.992188 131.410156 177.558594 131.273438 177.230469 131 C 176.898438 130.722656 176.699219 130.359375 176.628906 129.902344 L 177.308594 129.902344 C 177.375 130.191406 177.511719 130.417969 177.726562 130.578125 C 177.941406 130.742188 178.210938 130.824219 178.535156 130.824219 C 178.9375 130.824219 179.238281 130.703125 179.445312 130.464844 C 179.648438 130.222656 179.75 129.902344 179.75 129.503906 C 179.75 129.109375 179.648438 128.804688 179.445312 128.589844 C 179.238281 128.371094 178.941406 128.261719 178.542969 128.261719 C 178.273438 128.261719 178.035156 128.328125 177.832031 128.460938 C 177.632812 128.585938 177.488281 128.761719 177.398438 128.988281 L 176.742188 128.988281 L 176.742188 125.875 L 180.0625 125.875 Z M 181.253906 130.839844 C 181.898438 130.320312 182.402344 129.894531 182.769531 129.566406 C 183.136719 129.230469 183.445312 128.882812 183.695312 128.519531 C 183.949219 128.15625 184.074219 127.796875 184.074219 127.445312 C 184.074219 127.117188 183.992188 126.855469 183.832031 126.667969 C 183.671875 126.476562 183.417969 126.378906 183.058594 126.378906 C 182.714844 126.378906 182.445312 126.488281 182.25 126.707031 C 182.0625 126.921875 181.960938 127.207031 181.945312 127.566406 L 181.273438 127.566406 C 181.296875 127 181.46875 126.558594 181.792969 126.25 C 182.121094 125.9375 182.539062 125.785156 183.054688 125.785156 C 183.578125 125.785156 183.992188 125.929688 184.296875 126.21875 C 184.605469 126.507812 184.761719 126.90625 184.761719 127.414062 C 184.761719 127.835938 184.632812 128.25 184.378906 128.652344 C 184.132812 129.046875 183.847656 129.398438 183.527344 129.703125 C 183.207031 130.003906 182.796875 130.355469 182.296875 130.753906 L 184.921875 130.753906 L 184.921875 131.335938 L 181.253906 131.335938 Z M 189.121094 126.425781 L 187 131.394531 L 186.296875 131.394531 L 188.449219 126.492188 L 185.503906 126.492188 L 185.503906 125.898438 L 189.121094 125.898438 Z M 189.121094 126.425781 " fill-opacity="1" fill-rule="nonzero"/><path fill="#1c85e8" d="M 207.820312 127.613281 C 207.820312 125.273438 205.042969 123.378906 201.621094 123.378906 C 198.199219 123.378906 195.425781 125.273438 195.425781 127.613281 C 195.425781 129.953125 198.199219 131.847656 201.621094 131.847656 C 201.867188 131.847656 202.105469 131.835938 202.34375 131.816406 C 202.378906 131.8125 202.417969 131.816406 202.453125 131.832031 C 202.484375 131.84375 202.515625 131.863281 202.539062 131.890625 C 202.980469 132.351562 203.945312 133.0625 205.773438 133.175781 C 205.820312 133.179688 205.867188 133.167969 205.90625 133.148438 C 205.945312 133.125 205.980469 133.09375 206.003906 133.054688 C 206.027344 133.015625 206.039062 132.972656 206.039062 132.925781 C 206.039062 132.878906 206.027344 132.835938 206 132.796875 C 205.683594 132.320312 205.433594 131.800781 205.261719 131.253906 C 205.246094 131.199219 205.25 131.140625 205.273438 131.089844 C 205.296875 131.039062 205.339844 130.996094 205.390625 130.972656 C 206.863281 130.199219 207.820312 128.984375 207.820312 127.613281 Z M 207.820312 127.613281 " fill-opacity="1" fill-rule="nonzero"/><g clip-path="url(#7c3cd5a39d)"><path fill="#1c85e8" d="M 311.4375 37.5 L 365.238281 37.5 C 369.339844 37.5 372.664062 40.820312 372.664062 44.917969 L 372.664062 119.050781 C 372.664062 123.148438 369.339844 126.46875 365.238281 126.46875 L 311.4375 126.46875 C 307.335938 126.46875 304.011719 123.148438 304.011719 119.050781 L 304.011719 44.917969 C 304.011719 40.820312 307.335938 37.5 311.4375 37.5 Z M 311.4375 37.5 " fill-opacity="1" fill-rule="nonzero"/></g><path fill="#ffffff" d="M 332.589844 92.273438 L 329.769531 98.878906 L 328.835938 98.878906 L 331.695312 92.363281 L 327.78125 92.363281 L 327.78125 91.574219 L 332.589844 91.574219 Z M 334.949219 95.070312 C 334.570312 94.921875 334.28125 94.703125 334.078125 94.421875 C 333.875 94.136719 333.773438 93.792969 333.773438 93.386719 C 333.773438 93.023438 333.863281 92.695312 334.046875 92.40625 C 334.230469 92.109375 334.5 91.875 334.859375 91.707031 C 335.222656 91.53125 335.664062 91.441406 336.175781 91.441406 C 336.691406 91.441406 337.125 91.53125 337.484375 91.707031 C 337.847656 91.875 338.121094 92.109375 338.304688 92.40625 C 338.496094 92.695312 338.589844 93.023438 338.589844 93.386719 C 338.589844 93.78125 338.484375 94.125 338.273438 94.421875 C 338.066406 94.710938 337.777344 94.929688 337.414062 95.070312 C 337.832031 95.199219 338.164062 95.425781 338.40625 95.75 C 338.65625 96.066406 338.78125 96.449219 338.78125 96.902344 C 338.78125 97.34375 338.671875 97.726562 338.457031 98.058594 C 338.242188 98.382812 337.933594 98.636719 337.535156 98.816406 C 337.144531 98.992188 336.691406 99.082031 336.175781 99.082031 C 335.664062 99.082031 335.210938 98.992188 334.816406 98.816406 C 334.433594 98.636719 334.132812 98.382812 333.914062 98.058594 C 333.699219 97.726562 333.589844 97.34375 333.589844 96.902344 C 333.589844 96.449219 333.710938 96.0625 333.957031 95.738281 C 334.199219 95.414062 334.53125 95.191406 334.949219 95.070312 Z M 337.699219 93.5 C 337.699219 93.085938 337.5625 92.769531 337.292969 92.546875 C 337.019531 92.324219 336.648438 92.214844 336.175781 92.214844 C 335.710938 92.214844 335.339844 92.324219 335.070312 92.546875 C 334.800781 92.769531 334.664062 93.089844 334.664062 93.511719 C 334.664062 93.886719 334.804688 94.191406 335.082031 94.421875 C 335.363281 94.652344 335.730469 94.765625 336.175781 94.765625 C 336.628906 94.765625 336.996094 94.652344 337.269531 94.421875 C 337.554688 94.183594 337.699219 93.878906 337.699219 93.5 Z M 336.175781 95.476562 C 335.675781 95.476562 335.265625 95.59375 334.949219 95.828125 C 334.632812 96.058594 334.472656 96.40625 334.472656 96.871094 C 334.472656 97.304688 334.625 97.652344 334.929688 97.917969 C 335.242188 98.179688 335.65625 98.3125 336.175781 98.3125 C 336.695312 98.3125 337.109375 98.179688 337.414062 97.917969 C 337.71875 97.652344 337.871094 97.304688 337.871094 96.871094 C 337.871094 96.421875 337.714844 96.074219 337.402344 95.839844 C 337.089844 95.597656 336.683594 95.476562 336.175781 95.476562 Z M 339.804688 93.207031 C 339.804688 92.746094 339.945312 92.382812 340.21875 92.113281 C 340.496094 91.835938 340.851562 91.695312 341.285156 91.695312 C 341.71875 91.695312 342.070312 91.835938 342.347656 92.113281 C 342.625 92.382812 342.765625 92.746094 342.765625 93.207031 C 342.765625 93.671875 342.625 94.042969 342.347656 94.320312 C 342.070312 94.589844 341.71875 94.726562 341.285156 94.726562 C 340.851562 94.726562 340.496094 94.589844 340.21875 94.320312 C 339.945312 94.042969 339.804688 93.671875 339.804688 93.207031 Z M 345.722656 91.808594 L 341.621094 98.878906 L 340.707031 98.878906 L 344.8125 91.808594 Z M 341.285156 92.265625 C 341.054688 92.265625 340.871094 92.34375 340.738281 92.507812 C 340.609375 92.664062 340.542969 92.894531 340.542969 93.207031 C 340.542969 93.515625 340.609375 93.753906 340.738281 93.914062 C 340.871094 94.078125 341.054688 94.15625 341.285156 94.15625 C 341.515625 94.15625 341.699219 94.078125 341.832031 93.914062 C 341.96875 93.746094 342.035156 93.507812 342.035156 93.207031 C 342.035156 92.894531 341.96875 92.664062 341.832031 92.507812 C 341.699219 92.34375 341.515625 92.265625 341.285156 92.265625 Z M 343.6875 97.480469 C 343.6875 97.015625 343.828125 96.644531 344.105469 96.375 C 344.378906 96.097656 344.734375 95.960938 345.167969 95.960938 C 345.601562 95.960938 345.949219 96.097656 346.222656 96.375 C 346.5 96.644531 346.636719 97.015625 346.636719 97.480469 C 346.636719 97.9375 346.5 98.308594 346.222656 98.585938 C 345.949219 98.859375 345.601562 99 345.167969 99 C 344.734375 99 344.378906 98.863281 344.105469 98.59375 C 343.828125 98.316406 343.6875 97.945312 343.6875 97.480469 Z M 345.15625 96.539062 C 344.925781 96.539062 344.746094 96.617188 344.609375 96.78125 C 344.476562 96.9375 344.40625 97.167969 344.40625 97.480469 C 344.40625 97.785156 344.476562 98.015625 344.609375 98.179688 C 344.746094 98.335938 344.925781 98.410156 345.15625 98.410156 C 345.386719 98.410156 345.570312 98.335938 345.707031 98.179688 C 345.839844 98.015625 345.90625 97.785156 345.90625 97.480469 C 345.90625 97.167969 345.839844 96.9375 345.707031 96.78125 C 345.570312 96.617188 345.386719 96.539062 345.15625 96.539062 Z M 345.15625 96.539062 " fill-opacity="1" fill-rule="nonzero"/><g clip-path="url(#097c4592ba)"><path stroke-linecap="round" transform="matrix(0.0936314, 0, 0, 0.0935464, 0.00170785, 37.499998)" fill="none" stroke-linejoin="miter" d="M 3613.470091 823.03766 C 3490.397717 823.03766 3390.646515 723.279319 3390.646515 600.178611 C 3390.646515 477.119661 3490.397717 377.319563 3613.470091 377.319563 C 3736.584184 377.319563 3836.335386 477.119661 3836.335386 600.178611 C 3836.335386 723.279319 3736.584184 823.03766 3613.470091 823.03766 Z M 3613.470091 823.03766 " stroke="#ffffff" stroke-width="67.982002" stroke-opacity="1" stroke-miterlimit="10"/></g><path stroke-linecap="round" transform="matrix(0.0936314, 0, 0, 0.0935464, 0.00170785, 37.499998)" fill="none" stroke-linejoin="round" d="M 3390.646515 600.178611 C 3390.729954 659.223523 3414.218003 715.846508 3456.020891 757.562114 C 3497.782059 799.319478 3554.437071 822.745359 3613.470091 822.745359 C 3672.54483 822.745359 3729.199841 799.319478 3770.961009 757.562114 C 3812.763897 715.846508 3836.251947 659.223523 3836.335386 600.178611 " stroke="#96bafd" stroke-width="67.982002" stroke-opacity="1" stroke-miterlimit="4"/><path stroke-linecap="round" transform="matrix(0.0936314, 0, 0, 0.0935464, 0.00170785, 37.499998)" fill="none" stroke-linejoin="round" d="M 3613.470091 377.319563 C 3584.224757 377.319563 3555.22974 383.082079 3528.195537 394.314809 C 3501.161335 405.505783 3476.588579 421.916427 3455.895733 442.586322 C 3435.202886 463.297974 3418.807143 487.851304 3407.584611 514.910075 C 3396.403799 541.927089 3390.646515 570.9067 3390.646515 600.178611 " stroke="#febb94" stroke-width="67.982002" stroke-opacity="1" stroke-miterlimit="4"/><path stroke-linecap="round" transform="matrix(0.0936314, 0, 0, 0.0935464, 0.00170785, 37.499998)" fill="none" stroke-linejoin="miter" d="M 3873.966328 147.027703 L 3725.820566 147.027703 " stroke="#ffffff" stroke-width="33.686001" stroke-opacity="1" stroke-miterlimit="10"/><path stroke-linecap="round" transform="matrix(0.0936314, 0, 0, 0.0935464, 0.00170785, 37.499998)" fill="none" stroke-linejoin="miter" d="M 3873.966328 216.13614 L 3567.870733 216.13614 " stroke="#ffffff" stroke-width="33.686001" stroke-opacity="0.4" stroke-miterlimit="10"/><g clip-path="url(#af5a6b2f5a)"><path fill="#1c85e8" d="M 59.492188 331.230469 L 366.113281 331.230469 L 366.113281 338.929688 L 59.492188 338.929688 Z M 59.492188 331.230469 " fill-opacity="1" fill-rule="nonzero"/></g></svg>